Coordinates
version=1
nRows=13
nColumns=40
inDegrees=yes

Units are S.I. units (second, meters, Newtons, ...)
Angles are in degrees.

endheader
time	pelvis_tilt	pelvis_list	pelvis_rotation	pelvis_tx	pelvis_ty	pelvis_tz	hip_flexion_r	hip_adduction_r	hip_rotation_r	knee_angle_r	knee_angle_r_beta	ankle_angle_r	subtalar_angle_r	mtp_angle_r	hip_flexion_l	hip_adduction_l	hip_rotation_l	knee_angle_l	knee_angle_l_beta	ankle_angle_l	subtalar_angle_l	mtp_angle_l	lumbar_extension	lumbar_bending	lumbar_rotation	arm_flex_r	arm_add_r	arm_rot_r	elbow_flex_r	pro_sup_r	wrist_flex_r	wrist_dev_r	arm_flex_l	arm_add_l	arm_rot_l	elbow_flex_l	pro_sup_l	wrist_flex_l	wrist_dev_l
      3.43000007	      8.11529670	     11.37424273	    -13.38344152	     -1.24354801	      0.87805960	      0.45623792	     34.50816544	     -1.73099166	    -11.67164278	     99.38168852	     99.38168852	      5.84033482	      0.00000000	      0.00000000	     32.35969098	    -13.14836719	     12.24790033	     25.93313088	     25.93313088	    -22.71132965	      0.00000000	      0.00000000	    -49.75831948	    -12.84474825	      2.99019746	    -28.24098527	    -19.13583089	    -21.14954129	     94.91332139	     66.92784907	      0.00000000	      0.00000000	     30.21312582	    -17.64807085	    -14.28068455	    103.87424459	     38.48604532	      0.00000000	      0.00000000
      3.43500007	      8.24322822	     11.36672582	    -13.72489656	     -1.22174856	      0.87481215	      0.45748277	     35.66618447	     -2.06793208	    -12.35028742	    100.60697353	    100.60697353	      6.35123028	      0.00000000	      0.00000000	     31.81285661	    -13.06611240	     12.00416674	     27.46893887	     27.46893887	    -20.33681288	      0.00000000	      0.00000000	    -50.44783487	    -13.02339621	      3.61151093	    -27.92898485	    -19.42406959	    -20.96045328	     92.26992287	     69.06470815	      0.00000000	      0.00000000	     33.64110101	    -16.36178747	    -12.59428893	    104.90369656	     39.89823443	      0.00000000	      0.00000000
      3.44000007	      8.34971641	     11.34886565	    -13.97606476	     -1.19993355	      0.87132723	      0.45858232	     36.90931980	     -2.44126333	    -13.13303870	    101.65096443	    101.65096443	      6.90934581	      0.00000000	      0.00000000	     31.26634814	    -12.97573104	     11.68614376	     29.23157493	     29.23157493	    -17.32886465	      0.00000000	      0.00000000	    -51.14043421	    -13.08272084	      4.03509225	    -27.39914963	    -19.57501936	    -20.58855293	     89.66046056	     68.91294771	      0.00000000	      0.00000000	     36.98779937	    -15.13990508	    -10.95854184	    105.97697340	     40.00146671	      0.00000000	      0.00000000
      3.44500007	      8.41673212	     11.33634400	    -14.11785027	     -1.17813241	      0.86761163	      0.45958676	     38.25137333	     -2.86904093	    -14.01942408	    102.50505343	    102.50505343	      7.51218323	      0.00000000	      0.00000000	     30.73131160	    -12.87742354	     11.31530758	     31.13581733	     31.13581733	    -13.77916197	      0.00000000	      0.00000000	    -51.81225181	    -13.02354248	      4.25007058	    -26.73687617	    -19.59939540	    -19.65588565	     87.56111375	     59.19922050	      0.00000000	      0.00000000	     40.30986457	    -14.01836812	     -9.42895033	    106.80977564	     42.25547398	      0.00000000	      0.00000000
      3.45000007	      8.43202678	     11.34699881	    -14.13898245	     -1.15637734	      0.86369607	      0.46057443	     39.69944520	     -3.36645124	    -14.99907026	    103.15804812	    103.15804812	      8.14888037	      0.00000000	      0.00000000	     30.21866486	    -12.77050531	     10.91315018	     33.09990015	     33.09990015	     -9.83863500	      0.00000000	      0.00000000	    -52.45372984	    -12.85669956	      4.28397468	    -25.89591262	    -19.42510268	    -18.80242691	     85.62637849	     47.86833184	      0.00000000	      0.00000000	     43.65029763	    -13.00734245	     -7.88490638	    107.65565602	     42.61385565	      0.00000000	      0.00000000
      3.45500007	      8.39047758	     11.39797676	    -14.03432231	     -1.13469955	      0.85963753	      0.46164237	     41.25084109	     -3.94486833	    -16.05475775	    103.59563422	    103.59563422	      8.80237924	      0.00000000	      0.00000000	     29.73909503	    -12.65179047	     10.50409510	     35.05673971	     35.05673971	     -5.69226640	      0.00000000	      0.00000000	    -53.05677893	    -12.59908028	      4.14259668	    -24.87203104	    -19.02254990	    -18.26704067	     83.55719271	     39.07261259	      0.00000000	      0.00000000	     47.05626297	    -12.11682517	     -6.33694535	    108.37541483	     42.50937543	      0.00000000	      0.00000000
      3.46000007	      8.29453168	     11.50126450	    -13.80172397	     -1.11312461	      0.85551890	      0.46289140	     42.88879767	     -4.61049998	    -17.16771449	    103.79869896	    103.79869896	      9.45310220	      0.00000000	      0.00000000	     29.30133345	    -12.51598668	     10.11628190	     36.96111832	     36.96111832	     -1.53037194	      0.00000000	      0.00000000	    -53.61846974	    -12.26640297	      3.82475775	    -23.67027304	    -18.38749213	    -18.16843247	     80.83803691	     38.81737496	      0.00000000	      0.00000000	     50.55589497	    -11.35666155	     -4.79437285	    108.89587253	     42.55868365	      0.00000000	      0.00000000
      3.46500007	      8.15479078	     11.65963118	    -13.44038387	     -1.09166666	      0.85144743	      0.46441178	     44.57874082	     -5.36346491	    -18.32213968	    103.74340708	    103.74340708	     10.08381739	      0.00000000	      0.00000000	     28.90687833	    -12.35844818	      9.77963923	     38.78937888	     38.78937888	      2.47925544	      0.00000000	      0.00000000	    -54.14086857	    -11.86636776	      3.31522478	    -22.42985117	    -17.58921986	    -17.97018025	     78.76516792	     31.03367996	      0.00000000	      0.00000000	     54.13788277	    -10.75966387	     -3.21485897	    109.37453715	     40.44460338	      0.00000000	      0.00000000
      3.47000007	      7.98732974	     11.86780667	    -12.95285863	     -1.07032530	      0.84754100	      0.46627274	     46.27438232	     -6.19888912	    -19.50422620	    103.40772665	    103.40772665	     10.68368295	      0.00000000	      0.00000000	     28.54801950	    -12.17781415	      9.51850070	     40.53439903	     40.53439903	      6.20744438	      0.00000000	      0.00000000	    -54.63786100	    -11.40190004	      2.62549829	    -21.12162239	    -16.63969216	    -18.02246455	     76.30690530	     29.05576165	      0.00000000	      0.00000000	     57.82026873	    -10.31213534	     -1.66896751	    109.55508039	     39.49030647	      0.00000000	      0.00000000
      3.47500007	      7.81250632	     12.11601278	    -12.34981082	     -1.04908233	      0.84391872	      0.46852070	     47.92421373	     -7.10836979	    -20.69845672	    102.77782146	    102.77782146	     11.24194625	      0.00000000	      0.00000000	     28.20303084	    -11.97748741	      9.34418547	     42.19521841	     42.19521841	      9.57169517	      0.00000000	      0.00000000	    -55.12271974	    -10.87441624	      1.76264333	    -19.83017526	    -15.61207661	    -18.11668831	     73.90774417	     28.01544756	      0.00000000	      0.00000000	     61.57059638	    -10.02040461	     -0.12550627	    109.58144764	     37.78557908	      0.00000000	      0.00000000
      3.48000007	      7.64876509	     12.39535300	    -11.65172673	     -1.02790444	      0.84068129	      0.47117537	     49.48382776	     -8.08093205	    -21.88441538	    101.85227327	    101.85227327	     11.74995078	      0.00000000	      0.00000000	     27.84001877	    -11.76385366	      9.25366723	     43.76637738	     43.76637738	     12.53472735	      0.00000000	      0.00000000	    -55.60620604	    -10.28849260	      0.74810258	    -18.61514631	    -14.56486701	    -18.18401164	     71.63917044	     27.80404875	      0.00000000	      0.00000000	     65.36301250	     -9.86728133	      1.36755075	    109.28469934	     37.75738435	      0.00000000	      0.00000000
      3.48500007	      7.50585589	     12.69919079	    -10.88626913	     -1.00674976	      0.83789520	      0.47422766	     50.92535713	     -9.10154134	    -23.03825500	    100.64092695	    100.64092695	     12.20124546	      0.00000000	      0.00000000	     27.42500574	    -11.54569811	      9.23299391	     45.23104084	     45.23104084	     15.09601175	      0.00000000	      0.00000000	    -56.08455921	     -9.65376075	     -0.39930869	    -17.53226965	    -13.58143387	    -18.06447696	     69.68920952	     26.66134721	      0.00000000	      0.00000000	     69.13100396	     -9.85162615	      2.85353035	    108.95498158	     35.83287727	      0.00000000	      0.00000000
      3.49000007	      7.37888694	     13.02307737	    -10.08238214	     -0.98557634	      0.83557998	      0.47763846	     52.24461157	    -10.15113403	    -24.13664002	     99.16184130	     99.16184130	     12.59034102	      0.00000000	      0.00000000	     26.93352123	    -11.33306791	      9.26130849	     46.56184853	     46.56184853	     17.28432316	      0.00000000	      0.00000000	    -56.54294358	     -8.97680066	     -1.63331218	    -16.62233430	    -12.68055861	    -17.77135095	     67.96270136	     26.50893272	      0.00000000	      0.00000000	     72.83135867	     -9.93590550	      4.26673961	    108.33909868	     35.77585330	      0.00000000	      0.00000000
